<?xml version="1.0" encoding="UTF-8" standalone="no"?><!DOCTYPE svg PUBLIC "-//W3C//DTD SVG 1.1//EN" "http://www.w3.org/Graphics/SVG/1.1/DTD/svg11.dtd"><svg width="100%" height="100%" viewBox="0 0 359 99" version="1.1" xmlns="http://www.w3.org/2000/svg" xmlns:xlink="http://www.w3.org/1999/xlink" xml:space="preserve" xmlns:serif="http://www.serif.com/" style="fill-rule:evenodd;clip-rule:evenodd;stroke-linejoin:round;stroke-miterlimit:2;"><rect id="Main-Logo" serif:id="Main Logo" x="0" y="0" width="358.708" height="98.768" style="fill:none;"/><g transform="matrix(44.273137,0,0,44.273137,335.580075,66.401324)"></g><text x="178.981px" y="66.401px" style="font-family:'Carlito', sans-serif;font-size:44.273px;fill:#fff;">MO<tspan x="244.958px " y="66.401px ">T</tspan>ION</text><g transform="matrix(44.273137,0,0,44.273137,131.260745,65.855165)"></g><text x="24.296px" y="65.855px" style="font-family:'Carlito', sans-serif;font-size:44.273px;fill:#fff;">ME<tspan x="83.334px " y="65.855px ">S</tspan>H</text><g><path d="M162.001,26.521c2.997,0.834 4.764,2.919 5.426,3.855c1.628,2.3 2.911,4.501 2.999,7.936c0.101,3.915 -0.158,6.062 -2.547,10.861c-3.16,6.349 -14.792,11.823 -15.145,12.082c-6.216,4.573 14.422,-3.537 17.538,-0.123c1.121,1.228 7.391,10.611 -17.068,11.853c-21.409,1.088 -12.012,-12.475 -9.709,-14.18c4.999,-3.701 5.516,-4.292 10.52,-9.396c4.852,-4.949 3.199,-15.077 -0.21,-14.23c-4.086,1.016 -1.688,5.567 -1.616,6.064c0.457,3.173 -1.801,4.94 -2.937,5.201c-10.708,2.464 -10.139,-9.791 -6.806,-13.672c7.361,-8.571 15.388,-7.409 19.555,-6.25Z" style="fill:#fff;"/></g></svg>